<svg width="616.65625" height="500" 
	xmlns="http://www.w3.org/2000/svg" version="1.1"><g class="x axis" transform="translate(0,485)" style="stroke-width: 1px; font-size: 10px; font-family: Arial, Helvetica;"><g class="tick" transform="translate(19.9438892124069,0)" style="opacity: 1;
	"><line y2="-485" x2="0" style="shape-rendering: crispEdges; fill: none; stroke: rgb(204, 204, 204);
	"></line><text dy=".71em" y="3" x="0" style="text-anchor: middle;

	">1985</text></g><g class="tick" transform="translate(119.3887635831567,0)" style="opacity: 1;
	"><line y2="-485" x2="0" style="shape-rendering: crispEdges; fill: none; stroke: rgb(204, 204, 204);
	"></line><text dy=".71em" y="3" x="0" style="text-anchor: middle;

	">1990</text></g><g class="tick" transform="translate(218.8336379539065,0)" style="opacity: 1;
	"><line y2="-485" x2="0" style="shape-rendering: crispEdges; fill: none; stroke: rgb(204, 204, 204);
	"></line><text dy=".71em" y="3" x="0" style="text-anchor: middle;

	">1995</text></g><g class="tick" transform="translate(318.27851232465633,0)" style="opacity: 1;
	"><line y2="-485" x2="0" style="shape-rendering: crispEdges; fill: none; stroke: rgb(204, 204, 204);
	"></line><text dy=".71em" y="3" x="0" style="text-anchor: middle;

	">2000</text></g><g class="tick" transform="translate(417.7778471961568,0)" style="opacity: 1;
	"><line y2="-485" x2="0" style="shape-rendering: crispEdges; fill: none; stroke: rgb(204, 204, 204);
	"></line><text dy=".71em" y="3" x="0" style="text-anchor: middle;

	">2005</text></g><g class="tick" transform="translate(517.2227215669066,0)" style="opacity: 1;
	"><line y2="-485" x2="0" style="shape-rendering: crispEdges; fill: none; stroke: rgb(204, 204, 204);
	"></line><text dy=".71em" y="3" x="0" style="text-anchor: middle;

	">2010</text></g><path class="domain" d="M0,-485V0H616.65625V-485" style="shape-rendering: crispEdges; fill: none; stroke: rgb(204, 204, 204);"></path></g><g class="flow" title="Desplazamiento" transform="translate(0,0)"><path class="area" d="M0,38.29950437989857L19.93254327475051,38.745942035897684L39.810626048750336,38.622915374954296L59.68870882275016,38.489636492265625L79.56679159674998,37.836290361043545L99.4993348715005,38.0264224734106L119.37741764550032,37.6582745107391L139.25550041950015,37.79994157485573L159.13358319349996,37.239797459499854L179.06612646825047,36.93875494825202L198.94420924225028,36.61441193303764L218.82229201625012,33.86308842466734L238.70037479024992,32.40074879572662L258.63291806500047,27.427489229106058L278.5110008390003,27.264385701340203L298.3890836130001,25.598865677811165L318.2671663869999,10.861762929047233L338.19970966175043,7.275349358515765L358.0777924357502,0L377.9558752097501,14.247792165466366L397.8339579837499,14.724054466542665L417.7665012585004,11.447071588686983L437.64458403250023,10.646466272396307L457.5226668065,7.999529021796158L477.40074958049985,10.31653113622995L497.33329285525036,19.28442910287595L517.2113756292503,20.576209042781514L537.08945840325,14.802344159870273L556.9675411772498,15.166764041907124L576.9000844520003,7.820581151333049L596.7781672260002,8.674311616667461L616.65625,34.342146786219615L616.65625,39.083333333333336L596.7781672260002,39.083333333333336L576.9000844520003,39.083333333333336L556.9675411772498,39.083333333333336L537.08945840325,39.083333333333336L517.2113756292503,39.083333333333336L497.33329285525036,39.083333333333336L477.40074958049985,39.083333333333336L457.5226668065,39.083333333333336L437.64458403250023,39.083333333333336L417.7665012585004,39.083333333333336L397.8339579837499,39.083333333333336L377.9558752097501,39.083333333333336L358.0777924357502,39.083333333333336L338.19970966175043,39.083333333333336L318.2671663869999,39.083333333333336L298.3890836130001,39.083333333333336L278.5110008390003,39.083333333333336L258.63291806500047,39.083333333333336L238.70037479024992,39.083333333333336L218.82229201625012,39.083333333333336L198.94420924225028,39.083333333333336L179.06612646825047,39.083333333333336L159.13358319349996,39.083333333333336L139.25550041950015,39.083333333333336L119.37741764550032,39.083333333333336L99.4993348715005,39.083333333333336L79.56679159674998,39.083333333333336L59.68870882275016,39.083333333333336L39.810626048750336,39.083333333333336L19.93254327475051,39.083333333333336L0,39.083333333333336Z" style="fill: rgb(191, 105, 105);"></path><text x="50" y="33.083333333333336" style="font-size: 10px; fill: rgb(34, 34, 34); font-family: Arial, Helvetica; text-anchor: start;">Desplazamiento</text></g><g class="flow" title="Amenaza" transform="translate(0,40.083333333333336)"><path class="area" d="M0,39.0200331636588L19.93254327475051,39.05620468918711L39.810626048750336,39.0200331636588L59.68870882275016,38.94769011260219L79.56679159674998,38.938647231220116L99.4993348715005,38.938647231220116L119.37741764550032,38.90247570569181L139.25550041950015,38.83917553601728L159.13358319349996,38.748746722196515L179.06612646825047,38.7939611291069L198.94420924225028,38.65831790837576L218.82229201625012,38.604060620083295L238.70037479024992,38.55884621317292L258.63291806500047,37.89871587228135L278.5110008390003,38.09765926268703L298.3890836130001,37.78115841431436L318.2671663869999,36.21673993521518L338.19970966175043,36.63271247879069L358.0777924357502,35.692252815054765L377.9558752097501,37.01251349683788L397.8339579837499,36.867827394724664L417.7665012585004,37.18432824309733L437.64458403250023,37.33805722659263L457.5226668065,37.15719959895111L477.40074958049985,37.030599259602035L497.33329285525036,35.855024679932136L517.2113756292503,34.579978405059386L537.08945840325,30.02236618849298L556.9675411772498,8.690209008175229L576.9000844520003,4.1597254357550515L596.7781672260002,0L616.65625,32.2197863643375L616.65625,39.083333333333336L596.7781672260002,39.083333333333336L576.9000844520003,39.083333333333336L556.9675411772498,39.083333333333336L537.08945840325,39.083333333333336L517.2113756292503,39.083333333333336L497.33329285525036,39.083333333333336L477.40074958049985,39.083333333333336L457.5226668065,39.083333333333336L437.64458403250023,39.083333333333336L417.7665012585004,39.083333333333336L397.8339579837499,39.083333333333336L377.9558752097501,39.083333333333336L358.0777924357502,39.083333333333336L338.19970966175043,39.083333333333336L318.2671663869999,39.083333333333336L298.3890836130001,39.083333333333336L278.5110008390003,39.083333333333336L258.63291806500047,39.083333333333336L238.70037479024992,39.083333333333336L218.82229201625012,39.083333333333336L198.94420924225028,39.083333333333336L179.06612646825047,39.083333333333336L159.13358319349996,39.083333333333336L139.25550041950015,39.083333333333336L119.37741764550032,39.083333333333336L99.4993348715005,39.083333333333336L79.56679159674998,39.083333333333336L59.68870882275016,39.083333333333336L39.810626048750336,39.083333333333336L19.93254327475051,39.083333333333336L0,39.083333333333336Z" 
	style="fill: rgb(191, 148, 105);"></path><text x="50" y="33.083333333333336" style="font-size: 10px; fill: rgb(34, 34, 34); font-family: Arial, Helvetica; text-anchor: start;">Amenaza</text></g><g class="flow" title="Homicidio" transform="translate(0,80.16666666666667)"><path class="area" d="M0,10.645265888456551L19.93254327475051,37.63861867704281L39.810626048750336,37.25843060959792L59.68870882275016,36.26994163424125L79.56679159674998,36.26994163424125L99.4993348715005,35.05333981841764L119.37741764550032,35.96579118028535L139.25550041950015,32.01183527885863L159.13358319349996,29.35051880674449L179.06612646825047,31.403534370946826L198.94420924225028,31.4795719844358L218.82229201625012,29.426556420233464L238.70037479024992,29.122405966277565L258.63291806500047,26.08090142671855L278.5110008390003,28.514105058365764L298.3890836130001,26.461089494163428L318.2671663869999,23.11543450064851L338.19970966175043,23.79977302204929L358.0777924357502,19.541666666666668L377.9558752097501,23.64769779507134L397.8339579837499,26.537127107652402L417.7665012585004,29.35051880674449L437.64458403250023,32.62013618677043L457.5226668065,31.935797665369652L477.40074958049985,34.14088845654994L497.33329285525036,33.304474708171206L517.2113756292503,24.332036316472117L537.08945840325,9.732814526588847L556.9675411772498,0L576.9000844520003,13.91488326848249L596.7781672260002,30.034857328145264L616.65625,38.47503242542153L616.65625,39.083333333333336L596.7781672260002,39.083333333333336L576.9000844520003,39.083333333333336L556.9675411772498,39.083333333333336L537.08945840325,39.083333333333336L517.2113756292503,39.083333333333336L497.33329285525036,39.083333333333336L477.40074958049985,39.083333333333336L457.5226668065,39.083333333333336L437.64458403250023,39.083333333333336L417.7665012585004,39.083333333333336L397.8339579837499,39.083333333333336L377.9558752097501,39.083333333333336L358.0777924357502,39.083333333333336L338.19970966175043,39.083333333333336L318.2671663869999,39.083333333333336L298.3890836130001,39.083333333333336L278.5110008390003,39.083333333333336L258.63291806500047,39.083333333333336L238.70037479024992,39.083333333333336L218.82229201625012,39.083333333333336L198.94420924225028,39.083333333333336L179.06612646825047,39.083333333333336L159.13358319349996,39.083333333333336L139.25550041950015,39.083333333333336L119.37741764550032,39.083333333333336L99.4993348715005,39.083333333333336L79.56679159674998,39.083333333333336L59.68870882275016,39.083333333333336L39.810626048750336,39.083333333333336L19.93254327475051,39.083333333333336L0,39.083333333333336Z" 
	style="fill: rgb(191, 191, 105);"></path><text x="50" y="33.083333333333336" style="font-size: 10px; fill: rgb(34, 34, 34); font-family: Arial, Helvetica; text-anchor: start;">Homicidio</text></g><g class="flow" title="Acto terrorista" transform="translate(0,120.25)"><path class="area" d="M0,36.37181020733652L19.93254327475051,39.083333333333336L39.810626048750336,39.083333333333336L59.68870882275016,38.615829346092504L79.56679159674998,38.98983253588517L99.4993348715005,38.80283094098884L119.37741764550032,38.70933014354067L139.25550041950015,38.615829346092504L159.13358319349996,38.80283094098884L179.06612646825047,38.80283094098884L198.94420924225028,38.70933014354067L218.82229201625012,38.70933014354067L238.70037479024992,38.14832535885168L258.63291806500047,37.96132376395534L278.5110008390003,35.249800637958536L298.3890836130001,37.86782296650718L318.2671663869999,34.969298245614034L338.19970966175043,34.875797448165876L358.0777924357502,34.50179425837321L377.9558752097501,35.810805422647526L397.8339579837499,36.37181020733652L417.7665012585004,36.839314194577355L437.64458403250023,36.55881180223285L457.5226668065,34.31479266347687L477.40074958049985,36.09130781499203L497.33329285525036,33.94078947368421L517.2113756292503,32.72527910685806L537.08945840325,21.50518341307815L556.9675411772498,0L576.9000844520003,3.5530303030303045L596.7781672260002,29.359250398724086L616.65625,39.083333333333336L616.65625,39.083333333333336L596.7781672260002,39.083333333333336L576.9000844520003,39.083333333333336L556.9675411772498,39.083333333333336L537.08945840325,39.083333333333336L517.2113756292503,39.083333333333336L497.33329285525036,39.083333333333336L477.40074958049985,39.083333333333336L457.5226668065,39.083333333333336L437.64458403250023,39.083333333333336L417.7665012585004,39.083333333333336L397.8339579837499,39.083333333333336L377.9558752097501,39.083333333333336L358.0777924357502,39.083333333333336L338.19970966175043,39.083333333333336L318.2671663869999,39.083333333333336L298.3890836130001,39.083333333333336L278.5110008390003,39.083333333333336L258.63291806500047,39.083333333333336L238.70037479024992,39.083333333333336L218.82229201625012,39.083333333333336L198.94420924225028,39.083333333333336L179.06612646825047,39.083333333333336L159.13358319349996,39.083333333333336L139.25550041950015,39.083333333333336L119.37741764550032,39.083333333333336L99.4993348715005,39.083333333333336L79.56679159674998,39.083333333333336L59.68870882275016,39.083333333333336L39.810626048750336,39.083333333333336L19.93254327475051,39.083333333333336L0,39.083333333333336Z" 
	style="fill: rgb(148, 191, 105);"></path><text x="50" y="33.083333333333336" style="font-size: 10px; fill: rgb(34, 34, 34); font-family: Arial, Helvetica; text-anchor: start;">Acto terrorista</text></g><g class="flow" title="Desaparición forzada" transform="translate(0,160.33333333333334)"><path class="area" d="M0,4.598039215686276L19.93254327475051,30.347058823529416L39.810626048750336,38.62352941176471L59.68870882275016,36.7843137254902L79.56679159674998,33.56568627450981L99.4993348715005,36.32450980392157L119.37741764550032,34.02549019607844L139.25550041950015,32.18627450980392L159.13358319349996,35.86470588235294L179.06612646825047,31.726470588235298L198.94420924225028,29.887254901960784L218.82229201625012,33.56568627450981L238.70037479024992,30.80686274509804L258.63291806500047,28.967647058823534L278.5110008390003,24.82941176470588L298.3890836130001,15.173529411764704L318.2671663869999,11.954901960784316L338.19970966175043,17.01274509803922L358.0777924357502,8.736274509803922L377.9558752097501,0L397.8339579837499,21.150980392156868L417.7665012585004,20.691176470588236L437.64458403250023,31.726470588235298L457.5226668065,28.507843137254905L477.40074958049985,32.18627450980392L497.33329285525036,32.64607843137255L517.2113756292503,28.507843137254905L537.08945840325,18.851960784313725L556.9675411772498,4.138235294117646L576.9000844520003,25.749019607843138L596.7781672260002,30.347058823529416L616.65625,38.62352941176471L616.65625,39.083333333333336L596.7781672260002,39.083333333333336L576.9000844520003,39.083333333333336L556.9675411772498,39.083333333333336L537.08945840325,39.083333333333336L517.2113756292503,39.083333333333336L497.33329285525036,39.083333333333336L477.40074958049985,39.083333333333336L457.5226668065,39.083333333333336L437.64458403250023,39.083333333333336L417.7665012585004,39.083333333333336L397.8339579837499,39.083333333333336L377.9558752097501,39.083333333333336L358.0777924357502,39.083333333333336L338.19970966175043,39.083333333333336L318.2671663869999,39.083333333333336L298.3890836130001,39.083333333333336L278.5110008390003,39.083333333333336L258.63291806500047,39.083333333333336L238.70037479024992,39.083333333333336L218.82229201625012,39.083333333333336L198.94420924225028,39.083333333333336L179.06612646825047,39.083333333333336L159.13358319349996,39.083333333333336L139.25550041950015,39.083333333333336L119.37741764550032,39.083333333333336L99.4993348715005,39.083333333333336L79.56679159674998,39.083333333333336L59.68870882275016,39.083333333333336L39.810626048750336,39.083333333333336L19.93254327475051,39.083333333333336L0,39.083333333333336Z" 
	style="fill: rgb(105, 191, 105);"></path><text x="50" y="33.083333333333336" style="font-size: 10px; fill: rgb(34, 34, 34); font-family: Arial, Helvetica; text-anchor: start;">Desaparición forzada</text></g><g class="flow" title="Minas Antipersonal" transform="translate(0,200.41666666666669)"><path class="area" d="M0,39.083333333333336L19.93254327475051,39.083333333333336L39.810626048750336,39.083333333333336L59.68870882275016,39.083333333333336L79.56679159674998,39.083333333333336L99.4993348715005,39.083333333333336L119.37741764550032,39.083333333333336L139.25550041950015,36.29166666666667L159.13358319349996,35.59375L179.06612646825047,37.6875L198.94420924225028,37.6875L218.82229201625012,36.989583333333336L238.70037479024992,33.50000000000001L258.63291806500047,35.59375L278.5110008390003,37.6875L298.3890836130001,35.59375L318.2671663869999,35.59375L338.19970966175043,36.989583333333336L358.0777924357502,16.750000000000004L377.9558752097501,13.260416666666668L397.8339579837499,23.031250000000004L417.7665012585004,0L437.64458403250023,4.187499999999998L457.5226668065,24.427083333333336L477.40074958049985,18.84375L497.33329285525036,30.010416666666664L517.2113756292503,30.010416666666664L537.08945840325,34.895833333333336L556.9675411772498,29.3125L576.9000844520003,34.895833333333336L596.7781672260002,36.989583333333336L616.65625,39.083333333333336L616.65625,39.083333333333336L596.7781672260002,39.083333333333336L576.9000844520003,39.083333333333336L556.9675411772498,39.083333333333336L537.08945840325,39.083333333333336L517.2113756292503,39.083333333333336L497.33329285525036,39.083333333333336L477.40074958049985,39.083333333333336L457.5226668065,39.083333333333336L437.64458403250023,39.083333333333336L417.7665012585004,39.083333333333336L397.8339579837499,39.083333333333336L377.9558752097501,39.083333333333336L358.0777924357502,39.083333333333336L338.19970966175043,39.083333333333336L318.2671663869999,39.083333333333336L298.3890836130001,39.083333333333336L278.5110008390003,39.083333333333336L258.63291806500047,39.083333333333336L238.70037479024992,39.083333333333336L218.82229201625012,39.083333333333336L198.94420924225028,39.083333333333336L179.06612646825047,39.083333333333336L159.13358319349996,39.083333333333336L139.25550041950015,39.083333333333336L119.37741764550032,39.083333333333336L99.4993348715005,39.083333333333336L79.56679159674998,39.083333333333336L59.68870882275016,39.083333333333336L39.810626048750336,39.083333333333336L19.93254327475051,39.083333333333336L0,39.083333333333336Z" 
	style="fill: rgb(105, 191, 148);"></path><text x="50" y="33.083333333333336" style="font-size: 10px; fill: rgb(34, 34, 34); font-family: Arial, Helvetica; text-anchor: start;">Minas Antipersonal</text></g><g class="flow" title="Delitos contra la integridad sexual" transform="translate(0,240.5)"><path class="area" d="M0,31.638888888888893L19.93254327475051,39.083333333333336L39.810626048750336,39.083333333333336L59.68870882275016,39.083333333333336L79.56679159674998,39.083333333333336L99.4993348715005,39.083333333333336L119.37741764550032,37.22222222222222L139.25550041950015,39.083333333333336L159.13358319349996,39.083333333333336L179.06612646825047,39.083333333333336L198.94420924225028,39.083333333333336L218.82229201625012,37.22222222222222L238.70037479024992,35.361111111111114L258.63291806500047,39.083333333333336L278.5110008390003,37.22222222222222L298.3890836130001,35.361111111111114L318.2671663869999,29.77777777777778L338.19970966175043,33.50000000000001L358.0777924357502,31.638888888888893L377.9558752097501,31.638888888888893L397.8339579837499,33.50000000000001L417.7665012585004,33.50000000000001L437.64458403250023,33.50000000000001L457.5226668065,29.77777777777778L477.40074958049985,33.50000000000001L497.33329285525036,0L517.2113756292503,20.472222222222225L537.08945840325,0L556.9675411772498,14.88888888888889L576.9000844520003,13.02777777777778L596.7781672260002,18.61111111111111L616.65625,37.22222222222222L616.65625,39.083333333333336L596.7781672260002,39.083333333333336L576.9000844520003,39.083333333333336L556.9675411772498,39.083333333333336L537.08945840325,39.083333333333336L517.2113756292503,39.083333333333336L497.33329285525036,39.083333333333336L477.40074958049985,39.083333333333336L457.5226668065,39.083333333333336L437.64458403250023,39.083333333333336L417.7665012585004,39.083333333333336L397.8339579837499,39.083333333333336L377.9558752097501,39.083333333333336L358.0777924357502,39.083333333333336L338.19970966175043,39.083333333333336L318.2671663869999,39.083333333333336L298.3890836130001,39.083333333333336L278.5110008390003,39.083333333333336L258.63291806500047,39.083333333333336L238.70037479024992,39.083333333333336L218.82229201625012,39.083333333333336L198.94420924225028,39.083333333333336L179.06612646825047,39.083333333333336L159.13358319349996,39.083333333333336L139.25550041950015,39.083333333333336L119.37741764550032,39.083333333333336L99.4993348715005,39.083333333333336L79.56679159674998,39.083333333333336L59.68870882275016,39.083333333333336L39.810626048750336,39.083333333333336L19.93254327475051,39.083333333333336L0,39.083333333333336Z" 
	style="fill: rgb(105, 191, 191);"></path><text x="50" y="33.083333333333336" style="font-size: 10px; fill: rgb(34, 34, 34); font-family: Arial, Helvetica; text-anchor: start;">Delitos contra la integridad sexual</text></g><g class="flow" title="Secuestro" transform="translate(0,280.58333333333337)"><path class="area" d="M0,34.19791666666667L19.93254327475051,39.083333333333336L39.810626048750336,39.083333333333336L59.68870882275016,39.083333333333336L79.56679159674998,39.083333333333336L99.4993348715005,39.083333333333336L119.37741764550032,39.083333333333336L139.25550041950015,39.083333333333336L159.13358319349996,34.19791666666667L179.06612646825047,39.083333333333336L198.94420924225028,39.083333333333336L218.82229201625012,36.640625L238.70037479024992,36.640625L258.63291806500047,36.640625L278.5110008390003,34.19791666666667L298.3890836130001,26.869791666666668L318.2671663869999,0L338.19970966175043,21.984375L358.0777924357502,21.984375L377.9558752097501,19.541666666666668L397.8339579837499,29.3125L417.7665012585004,19.541666666666668L437.64458403250023,31.755208333333336L457.5226668065,36.640625L477.40074958049985,36.640625L497.33329285525036,39.083333333333336L517.2113756292503,31.755208333333336L537.08945840325,17.098958333333336L556.9675411772498,9.770833333333334L576.9000844520003,34.19791666666667L596.7781672260002,34.19791666666667L616.65625,36.640625L616.65625,39.083333333333336L596.7781672260002,39.083333333333336L576.9000844520003,39.083333333333336L556.9675411772498,39.083333333333336L537.08945840325,39.083333333333336L517.2113756292503,39.083333333333336L497.33329285525036,39.083333333333336L477.40074958049985,39.083333333333336L457.5226668065,39.083333333333336L437.64458403250023,39.083333333333336L417.7665012585004,39.083333333333336L397.8339579837499,39.083333333333336L377.9558752097501,39.083333333333336L358.0777924357502,39.083333333333336L338.19970966175043,39.083333333333336L318.2671663869999,39.083333333333336L298.3890836130001,39.083333333333336L278.5110008390003,39.083333333333336L258.63291806500047,39.083333333333336L238.70037479024992,39.083333333333336L218.82229201625012,39.083333333333336L198.94420924225028,39.083333333333336L179.06612646825047,39.083333333333336L159.13358319349996,39.083333333333336L139.25550041950015,39.083333333333336L119.37741764550032,39.083333333333336L99.4993348715005,39.083333333333336L79.56679159674998,39.083333333333336L59.68870882275016,39.083333333333336L39.810626048750336,39.083333333333336L19.93254327475051,39.083333333333336L0,39.083333333333336Z" 
	style="fill: rgb(105, 148, 191);"></path><text x="50" y="33.083333333333336" style="font-size: 10px; fill: rgb(34, 34, 34); font-family: Arial, Helvetica; text-anchor: start;">Secuestro</text></g><g class="flow" title="Perdida de Muebles o Inmuebles" transform="translate(0,320.6666666666667)"><path class="area" d="M0,39.083333333333336L19.93254327475051,39.083333333333336L39.810626048750336,39.083333333333336L59.68870882275016,39.083333333333336L79.56679159674998,39.083333333333336L99.4993348715005,39.083333333333336L119.37741764550032,39.083333333333336L139.25550041950015,39.083333333333336L159.13358319349996,36.7843137254902L179.06612646825047,39.083333333333336L198.94420924225028,36.7843137254902L218.82229201625012,39.083333333333336L238.70037479024992,39.083333333333336L258.63291806500047,39.083333333333336L278.5110008390003,39.083333333333336L298.3890836130001,34.48529411764706L318.2671663869999,32.18627450980392L338.19970966175043,27.588235294117645L358.0777924357502,27.588235294117645L377.9558752097501,29.887254901960784L397.8339579837499,32.18627450980392L417.7665012585004,27.588235294117645L437.64458403250023,29.887254901960784L457.5226668065,32.18627450980392L477.40074958049985,36.7843137254902L497.33329285525036,36.7843137254902L517.2113756292503,27.588235294117645L537.08945840325,34.48529411764706L556.9675411772498,0L576.9000844520003,13.794117647058822L596.7781672260002,6.897058823529414L616.65625,32.18627450980392L616.65625,39.083333333333336L596.7781672260002,39.083333333333336L576.9000844520003,39.083333333333336L556.9675411772498,39.083333333333336L537.08945840325,39.083333333333336L517.2113756292503,39.083333333333336L497.33329285525036,39.083333333333336L477.40074958049985,39.083333333333336L457.5226668065,39.083333333333336L437.64458403250023,39.083333333333336L417.7665012585004,39.083333333333336L397.8339579837499,39.083333333333336L377.9558752097501,39.083333333333336L358.0777924357502,39.083333333333336L338.19970966175043,39.083333333333336L318.2671663869999,39.083333333333336L298.3890836130001,39.083333333333336L278.5110008390003,39.083333333333336L258.63291806500047,39.083333333333336L238.70037479024992,39.083333333333336L218.82229201625012,39.083333333333336L198.94420924225028,39.083333333333336L179.06612646825047,39.083333333333336L159.13358319349996,39.083333333333336L139.25550041950015,39.083333333333336L119.37741764550032,39.083333333333336L99.4993348715005,39.083333333333336L79.56679159674998,39.083333333333336L59.68870882275016,39.083333333333336L39.810626048750336,39.083333333333336L19.93254327475051,39.083333333333336L0,39.083333333333336Z" 
	style="fill: rgb(105, 105, 191);"></path><text x="50" y="33.083333333333336" style="font-size: 10px; fill: rgb(34, 34, 34); font-family: Arial, Helvetica; text-anchor: start;">Perdida de Muebles o Inmuebles</text></g><g class="flow" title="Tortura" transform="translate(0,360.75)"><path class="area" d="M0,11.166666666666666L19.93254327475051,39.083333333333336L39.810626048750336,39.083333333333336L59.68870882275016,39.083333333333336L79.56679159674998,39.083333333333336L99.4993348715005,39.083333333333336L119.37741764550032,39.083333333333336L139.25550041950015,39.083333333333336L159.13358319349996,39.083333333333336L179.06612646825047,33.50000000000001L198.94420924225028,39.083333333333336L218.82229201625012,39.083333333333336L238.70037479024992,39.083333333333336L258.63291806500047,39.083333333333336L278.5110008390003,39.083333333333336L298.3890836130001,22.333333333333332L318.2671663869999,22.333333333333332L338.19970966175043,22.333333333333332L358.0777924357502,5.583333333333336L377.9558752097501,27.916666666666668L397.8339579837499,39.083333333333336L417.7665012585004,22.333333333333332L437.64458403250023,22.333333333333332L457.5226668065,27.916666666666668L477.40074958049985,33.50000000000001L497.33329285525036,39.083333333333336L517.2113756292503,39.083333333333336L537.08945840325,39.083333333333336L556.9675411772498,5.583333333333336L576.9000844520003,33.50000000000001L596.7781672260002,0L616.65625,39.083333333333336L616.65625,39.083333333333336L596.7781672260002,39.083333333333336L576.9000844520003,39.083333333333336L556.9675411772498,39.083333333333336L537.08945840325,39.083333333333336L517.2113756292503,39.083333333333336L497.33329285525036,39.083333333333336L477.40074958049985,39.083333333333336L457.5226668065,39.083333333333336L437.64458403250023,39.083333333333336L417.7665012585004,39.083333333333336L397.8339579837499,39.083333333333336L377.9558752097501,39.083333333333336L358.0777924357502,39.083333333333336L338.19970966175043,39.083333333333336L318.2671663869999,39.083333333333336L298.3890836130001,39.083333333333336L278.5110008390003,39.083333333333336L258.63291806500047,39.083333333333336L238.70037479024992,39.083333333333336L218.82229201625012,39.083333333333336L198.94420924225028,39.083333333333336L179.06612646825047,39.083333333333336L159.13358319349996,39.083333333333336L139.25550041950015,39.083333333333336L119.37741764550032,39.083333333333336L99.4993348715005,39.083333333333336L79.56679159674998,39.083333333333336L59.68870882275016,39.083333333333336L39.810626048750336,39.083333333333336L19.93254327475051,39.083333333333336L0,39.083333333333336Z" 
	style="fill: rgb(148, 105, 191);"></path><text x="50" y="33.083333333333336" style="font-size: 10px; fill: rgb(34, 34, 34); font-family: Arial, Helvetica; text-anchor: start;">Tortura</text></g><g class="flow" title="Vinculación de Niños y Adolescentes" transform="translate(0,400.83333333333337)"><path class="area" d="M0,31.26666666666667L19.93254327475051,39.083333333333336L39.810626048750336,39.083333333333336L59.68870882275016,39.083333333333336L79.56679159674998,39.083333333333336L99.4993348715005,39.083333333333336L119.37741764550032,39.083333333333336L139.25550041950015,39.083333333333336L159.13358319349996,39.083333333333336L179.06612646825047,39.083333333333336L198.94420924225028,39.083333333333336L218.82229201625012,39.083333333333336L238.70037479024992,39.083333333333336L258.63291806500047,39.083333333333336L278.5110008390003,39.083333333333336L298.3890836130001,39.083333333333336L318.2671663869999,31.26666666666667L338.19970966175043,15.633333333333335L358.0777924357502,0L377.9558752097501,7.8166666666666655L397.8339579837499,0L417.7665012585004,31.26666666666667L437.64458403250023,39.083333333333336L457.5226668065,39.083333333333336L477.40074958049985,39.083333333333336L497.33329285525036,39.083333333333336L517.2113756292503,39.083333333333336L537.08945840325,31.26666666666667L556.9675411772498,31.26666666666667L576.9000844520003,31.26666666666667L596.7781672260002,23.45L616.65625,39.083333333333336L616.65625,39.083333333333336L596.7781672260002,39.083333333333336L576.9000844520003,39.083333333333336L556.9675411772498,39.083333333333336L537.08945840325,39.083333333333336L517.2113756292503,39.083333333333336L497.33329285525036,39.083333333333336L477.40074958049985,39.083333333333336L457.5226668065,39.083333333333336L437.64458403250023,39.083333333333336L417.7665012585004,39.083333333333336L397.8339579837499,39.083333333333336L377.9558752097501,39.083333333333336L358.0777924357502,39.083333333333336L338.19970966175043,39.083333333333336L318.2671663869999,39.083333333333336L298.3890836130001,39.083333333333336L278.5110008390003,39.083333333333336L258.63291806500047,39.083333333333336L238.70037479024992,39.083333333333336L218.82229201625012,39.083333333333336L198.94420924225028,39.083333333333336L179.06612646825047,39.083333333333336L159.13358319349996,39.083333333333336L139.25550041950015,39.083333333333336L119.37741764550032,39.083333333333336L99.4993348715005,39.083333333333336L79.56679159674998,39.083333333333336L59.68870882275016,39.083333333333336L39.810626048750336,39.083333333333336L19.93254327475051,39.083333333333336L0,39.083333333333336Z" 
	style="fill: rgb(191, 105, 191);"></path><text x="50" y="33.083333333333336" style="font-size: 10px; fill: rgb(34, 34, 34); font-family: Arial, Helvetica; text-anchor: start;">Vinculación de Niños y Adolescentes</text></g><g class="flow" title="Abandono o Despojo de Tierras" transform="translate(0,440.9166666666667)"><path class="area" d="M0,39.083333333333336L19.93254327475051,39.083333333333336L39.810626048750336,39.083333333333336L59.68870882275016,39.083333333333336L79.56679159674998,39.083333333333336L99.4993348715005,39.083333333333336L119.37741764550032,39.083333333333336L139.25550041950015,39.083333333333336L159.13358319349996,39.083333333333336L179.06612646825047,39.083333333333336L198.94420924225028,39.083333333333336L218.82229201625012,39.083333333333336L238.70037479024992,23.45L258.63291806500047,31.26666666666667L278.5110008390003,15.633333333333335L298.3890836130001,31.26666666666667L318.2671663869999,23.45L338.19970966175043,31.26666666666667L358.0777924357502,0L377.9558752097501,39.083333333333336L397.8339579837499,39.083333333333336L417.7665012585004,39.083333333333336L437.64458403250023,31.26666666666667L457.5226668065,39.083333333333336L477.40074958049985,23.45L497.33329285525036,39.083333333333336L517.2113756292503,39.083333333333336L537.08945840325,39.083333333333336L556.9675411772498,39.083333333333336L576.9000844520003,39.083333333333336L596.7781672260002,39.083333333333336L616.65625,39.083333333333336L616.65625,39.083333333333336L596.7781672260002,39.083333333333336L576.9000844520003,39.083333333333336L556.9675411772498,39.083333333333336L537.08945840325,39.083333333333336L517.2113756292503,39.083333333333336L497.33329285525036,39.083333333333336L477.40074958049985,39.083333333333336L457.5226668065,39.083333333333336L437.64458403250023,39.083333333333336L417.7665012585004,39.083333333333336L397.8339579837499,39.083333333333336L377.9558752097501,39.083333333333336L358.0777924357502,39.083333333333336L338.19970966175043,39.083333333333336L318.2671663869999,39.083333333333336L298.3890836130001,39.083333333333336L278.5110008390003,39.083333333333336L258.63291806500047,39.083333333333336L238.70037479024992,39.083333333333336L218.82229201625012,39.083333333333336L198.94420924225028,39.083333333333336L179.06612646825047,39.083333333333336L159.13358319349996,39.083333333333336L139.25550041950015,39.083333333333336L119.37741764550032,39.083333333333336L99.4993348715005,39.083333333333336L79.56679159674998,39.083333333333336L59.68870882275016,39.083333333333336L39.810626048750336,39.083333333333336L19.93254327475051,39.083333333333336L0,39.083333333333336Z" style="fill: rgb(191, 105, 148);"></path><text x="50" y="33.083333333333336" style="font-size: 10px; fill: rgb(34, 34, 34); font-family: Arial, Helvetica; text-anchor: start;">Abandono o Despojo de Tierras</text></g></svg>